<?xml version="1.0" encoding="UTF-8" standalone="no"?>
<svg width="800" height="600" xmlns="http://www.w3.org/2000/svg">
  <!-- Background -->
  <rect width="800" height="600" fill="#f8f9fa" />
  
  <!-- Title -->
  <text x="400" y="40" font-family="Arial" font-size="24" text-anchor="middle" font-weight="bold">MySQL Cluster with ProxySQL Architecture</text>
  
  <!-- Client Applications -->
  <rect x="300" y="70" width="200" height="50" rx="5" fill="#e3f2fd" stroke="#2196f3" stroke-width="2" />
  <text x="400" y="100" font-family="Arial" font-size="14" text-anchor="middle">Client Applications</text>
  
  <!-- Arrows from Clients to ProxySQL -->
  <line x1="350" y1="120" x2="250" y2="170" stroke="#2196f3" stroke-width="2" stroke-dasharray="5,5" />
  <line x1="450" y1="120" x2="550" y2="170" stroke="#2196f3" stroke-width="2" stroke-dasharray="5,5" />
  <text x="280" y="150" font-family="Arial" font-size="12" text-anchor="middle">SQL</text>
  <text x="520" y="150" font-family="Arial" font-size="12" text-anchor="middle">SQL</text>
  
  <!-- ProxySQL Layer -->
  <rect x="150" y="170" width="200" height="60" rx="5" fill="#e8f5e9" stroke="#4caf50" stroke-width="2" />
  <text x="250" y="195" font-family="Arial" font-size="14" text-anchor="middle" font-weight="bold">ProxySQL 1</text>
  <text x="250" y="215" font-family="Arial" font-size="12" text-anchor="middle">Primary Load Balancer</text>
  
  <rect x="450" y="170" width="200" height="60" rx="5" fill="#e8f5e9" stroke="#4caf50" stroke-width="2" />
  <text x="550" y="195" font-family="Arial" font-size="14" text-anchor="middle" font-weight="bold">ProxySQL 2</text>
  <text x="550" y="215" font-family="Arial" font-size="12" text-anchor="middle">Secondary Load Balancer</text>
  
  <!-- Arrows from ProxySQL to MySQL -->
  <line x1="200" y1="230" x2="150" y2="280" stroke="#4caf50" stroke-width="2" />
  <line x1="250" y1="230" x2="250" y2="280" stroke="#4caf50" stroke-width="2" />
  <line x1="300" y1="230" x2="350" y2="280" stroke="#4caf50" stroke-width="2" />
  <line x1="500" y1="230" x2="450" y2="280" stroke="#4caf50" stroke-width="2" />
  <line x1="550" y1="230" x2="550" y2="280" stroke="#4caf50" stroke-width="2" />
  <line x1="600" y1="230" x2="650" y2="280" stroke="#4caf50" stroke-width="2" />
  
  <!-- MySQL SQL Nodes -->
  <rect x="100" y="280" width="200" height="60" rx="5" fill="#fff3e0" stroke="#ff9800" stroke-width="2" />
  <text x="200" y="305" font-family="Arial" font-size="14" text-anchor="middle" font-weight="bold">MySQL 1</text>
  <text x="200" y="325" font-family="Arial" font-size="12" text-anchor="middle">SQL Node (NodeId=4)</text>
  
  <rect x="500" y="280" width="200" height="60" rx="5" fill="#fff3e0" stroke="#ff9800" stroke-width="2" />
  <text x="600" y="305" font-family="Arial" font-size="14" text-anchor="middle" font-weight="bold">MySQL 2</text>
  <text x="600" y="325" font-family="Arial" font-size="12" text-anchor="middle">SQL Node (NodeId=5)</text>
  
  <!-- Management Nodes -->
  <rect x="300" y="280" width="200" height="60" rx="5" fill="#f3e5f5" stroke="#9c27b0" stroke-width="2" />
  <text x="400" y="305" font-family="Arial" font-size="14" text-anchor="middle" font-weight="bold">Management Nodes</text>
  <text x="400" y="325" font-family="Arial" font-size="12" text-anchor="middle">NodeId=1, NodeId=8</text>
  
  <!-- Arrows from MySQL to Data Nodes -->
  <line x1="150" y1="340" x2="150" y2="390" stroke="#ff9800" stroke-width="2" />
  <line x1="200" y1="340" x2="200" y2="390" stroke="#ff9800" stroke-width="2" />
  <line x1="250" y1="340" x2="250" y2="390" stroke="#ff9800" stroke-width="2" />
  <line x1="550" y1="340" x2="550" y2="390" stroke="#ff9800" stroke-width="2" />
  <line x1="600" y1="340" x2="600" y2="390" stroke="#ff9800" stroke-width="2" />
  <line x1="650" y1="340" x2="650" y2="390" stroke="#ff9800" stroke-width="2" />
  
  <!-- Arrows from Management to Data Nodes -->
  <line x1="350" y1="340" x2="300" y2="390" stroke="#9c27b0" stroke-width="2" />
  <line x1="400" y1="340" x2="400" y2="390" stroke="#9c27b0" stroke-width="2" />
  <line x1="450" y1="340" x2="500" y2="390" stroke="#9c27b0" stroke-width="2" />
  
  <!-- Data Nodes -->
  <rect x="100" y="390" width="150" height="60" rx="5" fill="#ffebee" stroke="#f44336" stroke-width="2" />
  <text x="175" y="415" font-family="Arial" font-size="14" text-anchor="middle" font-weight="bold">NDB 1</text>
  <text x="175" y="435" font-family="Arial" font-size="12" text-anchor="middle">Data Node (NodeId=2)</text>
  
  <rect x="250" y="390" width="150" height="60" rx="5" fill="#ffebee" stroke="#f44336" stroke-width="2" />
  <text x="325" y="415" font-family="Arial" font-size="14" text-anchor="middle" font-weight="bold">NDB 2</text>
  <text x="325" y="435" font-family="Arial" font-size="12" text-anchor="middle">Data Node (NodeId=3)</text>
  
  <rect x="400" y="390" width="150" height="60" rx="5" fill="#ffebee" stroke="#f44336" stroke-width="2" />
  <text x="475" y="415" font-family="Arial" font-size="14" text-anchor="middle" font-weight="bold">NDB 3</text>
  <text x="475" y="435" font-family="Arial" font-size="12" text-anchor="middle">Data Node (NodeId=6)</text>
  
  <rect x="550" y="390" width="150" height="60" rx="5" fill="#ffebee" stroke="#f44336" stroke-width="2" />
  <text x="625" y="415" font-family="Arial" font-size="14" text-anchor="middle" font-weight="bold">NDB 4</text>
  <text x="625" y="435" font-family="Arial" font-size="12" text-anchor="middle">Data Node (NodeId=7)</text>
  
  <!-- Node Groups -->
  <rect x="100" y="460" width="300" height="40" rx="0" fill="none" stroke="#f44336" stroke-width="2" stroke-dasharray="5,5" />
  <text x="250" y="485" font-family="Arial" font-size="14" text-anchor="middle">Node Group 0</text>
  
  <rect x="400" y="460" width="300" height="40" rx="0" fill="none" stroke="#f44336" stroke-width="2" stroke-dasharray="5,5" />
  <text x="550" y="485" font-family="Arial" font-size="14" text-anchor="middle">Node Group 1</text>
  
  <!-- Legend -->
  <rect x="100" y="520" width="20" height="15" fill="#e3f2fd" stroke="#2196f3" stroke-width="1" />
  <text x="125" y="532" font-family="Arial" font-size="12" text-anchor="start">Client Applications</text>
  
  <rect x="250" y="520" width="20" height="15" fill="#e8f5e9" stroke="#4caf50" stroke-width="1" />
  <text x="275" y="532" font-family="Arial" font-size="12" text-anchor="start">ProxySQL Load Balancers</text>
  
  <rect x="450" y="520" width="20" height="15" fill="#fff3e0" stroke="#ff9800" stroke-width="1" />
  <text x="475" y="532" font-family="Arial" font-size="12" text-anchor="start">MySQL SQL Nodes</text>
  
  <rect x="100" y="545" width="20" height="15" fill="#f3e5f5" stroke="#9c27b0" stroke-width="1" />
  <text x="125" y="557" font-family="Arial" font-size="12" text-anchor="start">Management Nodes</text>
  
  <rect x="250" y="545" width="20" height="15" fill="#ffebee" stroke="#f44336" stroke-width="1" />
  <text x="275" y="557" font-family="Arial" font-size="12" text-anchor="start">NDB Data Nodes</text>
  
  <rect x="450" y="545" width="20" height="15" fill="none" stroke="#f44336" stroke-width="1" stroke-dasharray="5,5" />
  <text x="475" y="557" font-family="Arial" font-size="12" text-anchor="start">Node Groups</text>
</svg>
